<svg width="16" height="16" viewBox="0 0 16 16" fill="none" xmlns="http://www.w3.org/2000/svg">
<path d="M10.3567 0.647461H10.9998C11.0548 0.65887 11.1104 0.666129 11.1661 0.66919C11.9057 0.74352 12.6193 1.02287 13.2478 1.48402C13.7058 1.82235 14.0907 2.27968 14.3724 2.82033C14.448 2.96542 14.5171 3.115 14.5794 3.26848C14.7671 3.74366 14.8851 4.25233 14.9283 4.77319C14.9411 4.85603 14.9353 4.94159 14.9481 5.02579C14.9609 5.10998 14.9481 5.22949 14.9481 5.3327C14.9525 5.45051 14.9494 5.56854 14.9388 5.6858C14.9249 5.98783 14.8922 6.28829 14.8411 6.58482C14.8143 6.76136 14.7678 6.93384 14.7376 7.11038L13.82 11.3923C13.77 11.6571 13.7095 11.9192 13.6549 12.1813C13.6262 12.354 13.5727 12.5197 13.4967 12.6716C13.4335 12.7864 13.355 12.8886 13.2641 12.9744C13.0475 13.1676 12.7819 13.2709 12.5094 13.2677C12.3944 13.2597 12.2807 13.2351 12.1709 13.1944C12.0539 13.1491 11.9475 13.0724 11.8604 12.9703C11.7421 12.8426 11.6719 12.6654 11.6651 12.4774C11.6592 12.3615 11.6722 12.2454 11.7034 12.1351C11.8492 11.457 11.9942 10.7803 12.1384 10.1049C12.2012 9.81968 12.2547 9.53041 12.3186 9.24522C12.5303 8.25928 12.7416 7.2738 12.9524 6.28877C13.0029 6.04711 13.0356 5.80086 13.0501 5.55271C13.055 5.36157 13.0511 5.17027 13.0385 4.97961C13.018 4.74122 12.9683 4.50752 12.8908 4.28566C12.819 4.07239 12.7154 3.87562 12.585 3.70441C12.5415 3.64782 12.4945 3.59516 12.4442 3.54688C12.4238 3.52165 12.4017 3.49848 12.3779 3.47762C12.2434 3.35277 12.0952 3.24954 11.9372 3.1707C11.7976 3.09305 11.6514 3.03252 11.5011 2.99008C11.2944 2.91941 11.0812 2.87747 10.8661 2.86514C10.77 2.85291 10.6732 2.84883 10.5765 2.85292C10.4998 2.85292 10.4253 2.87193 10.3439 2.86922C9.98782 2.90764 9.63775 3.00174 9.30308 3.14898C9.08366 3.24281 8.87095 3.35678 8.66695 3.48984C8.41792 3.65621 8.18411 3.85189 7.96917 4.0738C7.89707 4.16072 7.82264 4.24491 7.75054 4.33183C7.6027 4.52014 7.4814 4.73466 7.39118 4.96739C7.30047 5.31233 7.22372 5.66271 7.14115 6.00901C7.03997 6.45988 6.9353 6.90803 6.83878 7.3589C6.72248 7.86953 6.61665 8.38287 6.48989 8.89077C6.43407 9.10353 6.37786 9.31675 6.32126 9.53041C6.301 9.6487 6.2694 9.76396 6.22706 9.874C6.14858 10.0644 6.03228 10.2302 5.88785 10.3575C5.74342 10.4848 5.57503 10.57 5.39671 10.606C5.15291 10.6669 4.89839 10.6185 4.68382 10.4702C4.6189 10.4211 4.56118 10.3601 4.51286 10.2896C4.42158 10.1606 4.36422 10.0035 4.34772 9.83733C4.33201 9.76055 4.33201 9.68053 4.34772 9.60375C4.63614 8.50102 4.86524 7.37791 5.11644 6.26432C5.25716 5.63555 5.39671 5.00542 5.55371 4.38208C5.59146 4.2308 5.64292 4.08467 5.70722 3.94615C5.88197 3.53419 6.10595 3.1533 6.37243 2.81489L6.67945 2.45637C6.83976 2.28959 7.00746 2.13275 7.18185 1.98649C7.27023 1.90093 7.37257 1.83847 7.46677 1.76106C7.84418 1.48463 8.24622 1.25695 8.66578 1.08203C8.76929 1.04129 8.87046 0.991046 8.97629 0.959811C9.19847 0.880065 9.42447 0.815674 9.65313 0.766969C9.8299 0.723512 10.0102 0.7045 10.1893 0.675981C10.2427 0.676292 10.2961 0.670378 10.3486 0.658326L10.3567 0.647461Z" fill="#00579C"/>
<path d="M2.85806 2.79116C2.92086 2.79116 2.98249 2.77215 3.04529 2.77351C3.21068 2.7829 3.37332 2.82658 3.5256 2.90252C3.63255 2.96031 3.72504 3.04915 3.79424 3.16055C3.83457 3.22997 3.8615 3.3088 3.87314 3.39158C3.88479 3.47435 3.88088 3.5591 3.86169 3.63994C3.78145 4.00525 3.70818 4.37464 3.62328 4.73859C3.5287 5.18131 3.43411 5.62358 3.33952 6.0654C3.26858 6.40083 3.1895 6.73491 3.12088 7.07171C3.03793 7.45468 2.95575 7.8381 2.87434 8.22197C2.80456 8.52345 2.74176 8.82901 2.67664 9.13321C2.59622 9.45955 2.55014 9.7961 2.53941 10.1354C2.52608 10.2253 2.52608 10.3172 2.53941 10.4071C2.5441 10.763 2.61181 11.1139 2.73827 11.4378C2.796 11.5711 2.86412 11.698 2.94179 11.8167C3.00113 11.903 3.06648 11.9834 3.13717 12.0571C3.21685 12.1373 3.3016 12.2104 3.39069 12.2757C3.48823 12.3459 3.58962 12.4085 3.69422 12.4631C3.92729 12.5722 4.16927 12.6532 4.41642 12.7049C4.64693 12.7493 4.88094 12.7638 5.11419 12.7483C5.69952 12.7039 6.27021 12.5155 6.78885 12.1956C7.09373 12.0118 7.37743 11.7837 7.63316 11.5166C7.78151 11.3555 7.91447 11.1761 8.02973 10.9815C8.1047 10.8647 8.16284 10.7345 8.20185 10.5958C8.50887 9.36001 8.76821 8.10925 9.05197 6.86529C9.11012 6.61948 9.18106 6.37911 9.24269 6.13466C9.29801 5.90611 9.39523 5.69434 9.52762 5.51403C9.6034 5.40593 9.6947 5.31403 9.79743 5.24243C10.0154 5.0855 10.272 5.01767 10.5266 5.04959C10.6485 5.06311 10.767 5.10416 10.8755 5.17045C11.0111 5.24235 11.123 5.36393 11.1941 5.51675C11.2548 5.66532 11.2684 5.83424 11.2325 5.99342C11.0418 6.73763 10.872 7.48727 10.7069 8.24098C10.4812 9.25408 10.2638 10.2685 10.0091 11.2735C9.98652 11.3643 9.95694 11.4524 9.9207 11.5369C9.85841 11.7032 9.78572 11.8639 9.70323 12.0177C9.56197 12.2898 9.39755 12.5446 9.21246 12.7782C9.13687 12.8896 9.04267 12.9819 8.9601 13.0851C8.53388 13.547 8.05096 13.932 7.52733 14.2272C7.37964 14.3046 7.2331 14.3875 7.08076 14.454C6.94934 14.5206 6.80979 14.5667 6.67489 14.6238C6.46555 14.7025 6.25273 14.7596 6.03875 14.8193C5.95618 14.8383 5.87477 14.8506 5.79336 14.8709C5.66776 14.8967 5.54216 14.9076 5.41656 14.9307C5.35187 14.932 5.28735 14.9388 5.22351 14.9511H4.57807C4.55431 14.9426 4.52965 14.938 4.50481 14.9375C4.41293 14.9375 4.32222 14.909 4.23035 14.9035C3.95117 14.8615 3.67566 14.7911 3.40697 14.693C3.10671 14.5862 2.81705 14.4424 2.54289 14.2639C2.34471 14.1297 2.1561 13.9771 1.97886 13.8076C1.92108 13.7533 1.86595 13.6953 1.81372 13.6338C1.73348 13.536 1.64509 13.4491 1.57299 13.3431C1.09508 12.6976 0.788732 11.9033 0.691466 11.0576C0.671696 10.9218 0.668208 10.786 0.648438 10.6501V9.8815C0.65698 9.82998 0.662035 9.77776 0.663557 9.72532C0.693147 9.34686 0.750339 8.97204 0.834511 8.60494C0.970577 7.97752 1.09967 7.34603 1.24155 6.71998L1.56601 5.20576C1.66719 4.76304 1.75674 4.31624 1.85442 3.8708C1.87347 3.75888 1.9015 3.6493 1.93816 3.54351C1.98203 3.42189 2.04383 3.3102 2.12074 3.21351C2.16145 3.1687 2.19982 3.11981 2.23704 3.07771C2.41605 2.91425 2.63172 2.81474 2.85806 2.79116Z" fill="#DA251C"/>
</svg>
